<svg width="182" height="28" viewBox="0 0 182 28" fill="none" xmlns="http://www.w3.org/2000/svg">
<path d="M17.4343 4.375C18.9185 4.77332 20.2718 5.55499 21.3584 6.64159C22.445 7.72818 23.2266 9.08147 23.625 10.5656" stroke="#191C1F" stroke-width="1.5" stroke-linecap="round" stroke-linejoin="round"/>
<path d="M16.5266 7.75469C17.4192 7.99175 18.2333 8.46058 18.8864 9.11364C19.5395 9.76671 20.0083 10.5808 20.2454 11.4734" stroke="#191C1F" stroke-width="1.5" stroke-linecap="round" stroke-linejoin="round"/>
<path d="M10.1172 13.65C11.0176 15.5094 12.5211 17.0091 14.3828 17.9047C14.5201 17.9697 14.672 17.9979 14.8235 17.9863C14.975 17.9748 15.1209 17.9241 15.2469 17.8391L17.9812 16.0125C18.1021 15.9306 18.2417 15.8806 18.387 15.8672C18.5324 15.8538 18.6788 15.8774 18.8125 15.9359L23.9313 18.1344C24.1062 18.2072 24.2524 18.3355 24.3472 18.4995C24.4421 18.6636 24.4804 18.8542 24.4563 19.0422C24.294 20.3085 23.6759 21.4722 22.7177 22.3158C21.7594 23.1593 20.5266 23.6247 19.25 23.625C15.3049 23.625 11.5214 22.0578 8.73179 19.2682C5.94218 16.4786 4.375 12.6951 4.375 8.75C4.37529 7.47337 4.84073 6.24059 5.68425 5.28233C6.52776 4.32406 7.69154 3.70599 8.95781 3.54375C9.14576 3.51961 9.33643 3.55792 9.50047 3.65278C9.66451 3.74765 9.79281 3.89381 9.86562 4.06875L12.0641 9.19844C12.1212 9.33007 12.1451 9.47374 12.1337 9.61679C12.1223 9.75984 12.0758 9.89788 11.9984 10.0187L10.1719 12.7969C10.0906 12.9225 10.0428 13.0669 10.0333 13.2163C10.0237 13.3657 10.0526 13.515 10.1172 13.65V13.65Z" stroke="#191C1F" stroke-width="1.5" stroke-linecap="round" stroke-linejoin="round"/>
<path d="M44.874 13.809V15.096L37.107 15.114V13.818L44.874 13.809ZM41.652 18.336H40.365L40.347 10.569H41.643L41.652 18.336ZM49.3324 21V10.641H46.8214V9.552C47.6014 9.552 48.2074 9.495 48.6394 9.381C49.0714 9.267 49.3774 9.093 49.5574 8.859C49.7434 8.625 49.8454 8.334 49.8634 7.986H51.0514V21H49.3324ZM58.9935 15.69V17.004L54.4305 17.013V15.708L58.9935 15.69ZM61.2332 21V19.983V19.452C61.2332 18.786 61.3562 18.21 61.6022 17.724C61.8542 17.238 62.1842 16.815 62.5922 16.455C63.0062 16.089 63.4562 15.762 63.9422 15.474C64.4342 15.186 64.9232 14.91 65.4092 14.646C65.9012 14.376 66.3512 14.097 66.7592 13.809C67.1672 13.515 67.4942 13.185 67.7402 12.819C67.9922 12.447 68.1182 12.009 68.1182 11.505C68.1182 10.845 67.8842 10.308 67.4162 9.894C66.9542 9.48 66.3272 9.273 65.5352 9.273C64.6832 9.273 63.9992 9.513 63.4832 9.993C62.9672 10.473 62.6762 11.112 62.6102 11.91H60.9542C60.9722 11.16 61.1582 10.476 61.5122 9.858C61.8662 9.234 62.3852 8.736 63.0692 8.364C63.7532 7.992 64.5962 7.806 65.5982 7.806C66.4682 7.806 67.2242 7.962 67.8662 8.274C68.5082 8.58 69.0032 9.012 69.3512 9.57C69.7052 10.122 69.8822 10.767 69.8822 11.505C69.8822 12.177 69.7592 12.753 69.5132 13.233C69.2672 13.713 68.9402 14.13 68.5322 14.484C68.1302 14.832 67.6892 15.144 67.2092 15.42C66.7292 15.696 66.2462 15.963 65.7602 16.221C65.2742 16.473 64.8302 16.74 64.4282 17.022C64.0262 17.298 63.7022 17.616 63.4562 17.976C63.2102 18.336 63.0872 18.765 63.0872 19.263V19.524H69.9542V21H61.2332ZM76.3568 7.806C77.7668 7.806 78.8888 8.373 79.7228 9.507C80.5628 10.635 80.9828 12.306 80.9828 14.52C80.9828 16.722 80.5658 18.387 79.7318 19.515C78.8978 20.637 77.7668 21.198 76.3388 21.198C74.9168 21.198 73.7888 20.64 72.9548 19.524C72.1208 18.402 71.7038 16.743 71.7038 14.547C71.7038 13.065 71.8958 11.823 72.2798 10.821C72.6638 9.819 73.2038 9.066 73.8998 8.562C74.5958 8.058 75.4148 7.806 76.3568 7.806ZM76.3568 19.758C77.2868 19.758 77.9888 19.35 78.4628 18.534C78.9428 17.712 79.1828 16.377 79.1828 14.529C79.1828 12.645 78.9398 11.289 78.4538 10.461C77.9738 9.627 77.2718 9.21 76.3478 9.21C75.4298 9.21 74.7218 9.63 74.2238 10.47C73.7318 11.304 73.4858 12.657 73.4858 14.529C73.4858 16.371 73.7318 17.703 74.2238 18.525C74.7158 19.347 75.4268 19.758 76.3568 19.758ZM82.9773 21V19.983V19.452C82.9773 18.786 83.1003 18.21 83.3463 17.724C83.5983 17.238 83.9283 16.815 84.3363 16.455C84.7503 16.089 85.2003 15.762 85.6863 15.474C86.1783 15.186 86.6673 14.91 87.1533 14.646C87.6453 14.376 88.0953 14.097 88.5033 13.809C88.9113 13.515 89.2383 13.185 89.4843 12.819C89.7363 12.447 89.8623 12.009 89.8623 11.505C89.8623 10.845 89.6283 10.308 89.1603 9.894C88.6983 9.48 88.0713 9.273 87.2793 9.273C86.4273 9.273 85.7433 9.513 85.2273 9.993C84.7113 10.473 84.4203 11.112 84.3543 11.91H82.6983C82.7163 11.16 82.9023 10.476 83.2563 9.858C83.6103 9.234 84.1293 8.736 84.8133 8.364C85.4973 7.992 86.3403 7.806 87.3423 7.806C88.2123 7.806 88.9683 7.962 89.6103 8.274C90.2523 8.58 90.7473 9.012 91.0953 9.57C91.4493 10.122 91.6263 10.767 91.6263 11.505C91.6263 12.177 91.5033 12.753 91.2573 13.233C91.0113 13.713 90.6843 14.13 90.2763 14.484C89.8743 14.832 89.4333 15.144 88.9533 15.42C88.4733 15.696 87.9903 15.963 87.5043 16.221C87.0183 16.473 86.5743 16.74 86.1723 17.022C85.7703 17.298 85.4463 17.616 85.2003 17.976C84.9543 18.336 84.8313 18.765 84.8313 19.263V19.524H91.6983V21H82.9773ZM98.263 15.69V17.004L93.7 17.013V15.708L98.263 15.69ZM101.493 7.986H109.26L109.215 9.426H102.915L102.582 13.629C103.014 13.227 103.485 12.942 103.995 12.774C104.511 12.6 105.069 12.513 105.669 12.513C106.455 12.513 107.178 12.675 107.838 12.999C108.504 13.317 109.038 13.791 109.44 14.421C109.842 15.045 110.043 15.819 110.043 16.743C110.043 17.643 109.848 18.426 109.458 19.092C109.068 19.758 108.519 20.277 107.811 20.649C107.103 21.015 106.272 21.198 105.318 21.198C104.514 21.198 103.77 21.057 103.086 20.775C102.402 20.493 101.814 20.1 101.322 19.596C100.836 19.092 100.479 18.513 100.251 17.859L101.691 17.256C101.907 17.748 102.177 18.186 102.501 18.57C102.831 18.954 103.221 19.254 103.671 19.47C104.121 19.686 104.631 19.794 105.201 19.794C106.125 19.794 106.866 19.527 107.424 18.993C107.988 18.453 108.27 17.721 108.27 16.797C108.27 16.221 108.138 15.72 107.874 15.294C107.61 14.862 107.253 14.526 106.803 14.286C106.359 14.046 105.867 13.926 105.327 13.926C104.973 13.926 104.643 13.959 104.337 14.025C104.031 14.085 103.728 14.205 103.428 14.385C103.128 14.565 102.813 14.838 102.483 15.204C102.447 15.222 102.42 15.231 102.402 15.231C102.384 15.225 102.354 15.213 102.312 15.195L100.908 14.754L101.493 7.986ZM113.024 7.986H120.791L120.746 9.426H114.446L114.113 13.629C114.545 13.227 115.016 12.942 115.526 12.774C116.042 12.6 116.6 12.513 117.2 12.513C117.986 12.513 118.709 12.675 119.369 12.999C120.035 13.317 120.569 13.791 120.971 14.421C121.373 15.045 121.574 15.819 121.574 16.743C121.574 17.643 121.379 18.426 120.989 19.092C120.599 19.758 120.05 20.277 119.342 20.649C118.634 21.015 117.803 21.198 116.849 21.198C116.045 21.198 115.301 21.057 114.617 20.775C113.933 20.493 113.345 20.1 112.853 19.596C112.367 19.092 112.01 18.513 111.782 17.859L113.222 17.256C113.438 17.748 113.708 18.186 114.032 18.57C114.362 18.954 114.752 19.254 115.202 19.47C115.652 19.686 116.162 19.794 116.732 19.794C117.656 19.794 118.397 19.527 118.955 18.993C119.519 18.453 119.801 17.721 119.801 16.797C119.801 16.221 119.669 15.72 119.405 15.294C119.141 14.862 118.784 14.526 118.334 14.286C117.89 14.046 117.398 13.926 116.858 13.926C116.504 13.926 116.174 13.959 115.868 14.025C115.562 14.085 115.259 14.205 114.959 14.385C114.659 14.565 114.344 14.838 114.014 15.204C113.978 15.222 113.951 15.231 113.933 15.231C113.915 15.225 113.885 15.213 113.843 15.195L112.439 14.754L113.024 7.986ZM124.555 7.986H132.322L132.277 9.426H125.977L125.644 13.629C126.076 13.227 126.547 12.942 127.057 12.774C127.573 12.6 128.131 12.513 128.731 12.513C129.517 12.513 130.24 12.675 130.9 12.999C131.566 13.317 132.1 13.791 132.502 14.421C132.904 15.045 133.105 15.819 133.105 16.743C133.105 17.643 132.91 18.426 132.52 19.092C132.13 19.758 131.581 20.277 130.873 20.649C130.165 21.015 129.334 21.198 128.38 21.198C127.576 21.198 126.832 21.057 126.148 20.775C125.464 20.493 124.876 20.1 124.384 19.596C123.898 19.092 123.541 18.513 123.313 17.859L124.753 17.256C124.969 17.748 125.239 18.186 125.563 18.57C125.893 18.954 126.283 19.254 126.733 19.47C127.183 19.686 127.693 19.794 128.263 19.794C129.187 19.794 129.928 19.527 130.486 18.993C131.05 18.453 131.332 17.721 131.332 16.797C131.332 16.221 131.2 15.72 130.936 15.294C130.672 14.862 130.315 14.526 129.865 14.286C129.421 14.046 128.929 13.926 128.389 13.926C128.035 13.926 127.705 13.959 127.399 14.025C127.093 14.085 126.79 14.205 126.49 14.385C126.19 14.565 125.875 14.838 125.545 15.204C125.509 15.222 125.482 15.231 125.464 15.231C125.446 15.225 125.416 15.213 125.374 15.195L123.97 14.754L124.555 7.986ZM139.659 15.69V17.004L135.096 17.013V15.708L139.659 15.69ZM146.3 7.806C147.71 7.806 148.832 8.373 149.666 9.507C150.506 10.635 150.926 12.306 150.926 14.52C150.926 16.722 150.509 18.387 149.675 19.515C148.841 20.637 147.71 21.198 146.282 21.198C144.86 21.198 143.732 20.64 142.898 19.524C142.064 18.402 141.647 16.743 141.647 14.547C141.647 13.065 141.839 11.823 142.223 10.821C142.607 9.819 143.147 9.066 143.843 8.562C144.539 8.058 145.358 7.806 146.3 7.806ZM146.3 19.758C147.23 19.758 147.932 19.35 148.406 18.534C148.886 17.712 149.126 16.377 149.126 14.529C149.126 12.645 148.883 11.289 148.397 10.461C147.917 9.627 147.215 9.21 146.291 9.21C145.373 9.21 144.665 9.63 144.167 10.47C143.675 11.304 143.429 12.657 143.429 14.529C143.429 16.371 143.675 17.703 144.167 18.525C144.659 19.347 145.37 19.758 146.3 19.758ZM155.153 21V10.641H152.642V9.552C153.422 9.552 154.028 9.495 154.46 9.381C154.892 9.267 155.198 9.093 155.378 8.859C155.564 8.625 155.666 8.334 155.684 7.986H156.872V21H155.153ZM164.652 7.806C166.062 7.806 167.184 8.373 168.018 9.507C168.858 10.635 169.278 12.306 169.278 14.52C169.278 16.722 168.861 18.387 168.027 19.515C167.193 20.637 166.062 21.198 164.634 21.198C163.212 21.198 162.084 20.64 161.25 19.524C160.416 18.402 159.999 16.743 159.999 14.547C159.999 13.065 160.191 11.823 160.575 10.821C160.959 9.819 161.499 9.066 162.195 8.562C162.891 8.058 163.71 7.806 164.652 7.806ZM164.652 19.758C165.582 19.758 166.284 19.35 166.758 18.534C167.238 17.712 167.478 16.377 167.478 14.529C167.478 12.645 167.235 11.289 166.749 10.461C166.269 9.627 165.567 9.21 164.643 9.21C163.725 9.21 163.017 9.63 162.519 10.47C162.027 11.304 161.781 12.657 161.781 14.529C161.781 16.371 162.027 17.703 162.519 18.525C163.011 19.347 163.722 19.758 164.652 19.758ZM177.024 7.986H178.716V16.212H180.876V17.679H178.716V21H177.087V17.679H170.958V16.158L177.024 7.986ZM172.551 16.212H177.051V10.173L172.551 16.212Z" fill="#191C1F"/>
</svg>
