<svg width="154" height="48" viewBox="0 0 154 48" fill="none" xmlns="http://www.w3.org/2000/svg">
<rect width="154" height="48" rx="2" fill="#F2F4F5"/>
<path d="M24.525 29L28.179 18.878H29.831L33.478 29H31.966L31.014 26.347H27.017L26.044 29H24.525ZM27.374 24.989H30.629L29.012 20.348L27.374 24.989ZM36.9828 29.098C36.5535 29.098 36.2081 29.042 35.9468 28.93C35.6901 28.818 35.4941 28.6687 35.3588 28.482C35.2235 28.2907 35.1325 28.076 35.0858 27.838C35.0438 27.5953 35.0228 27.3457 35.0228 27.089V18.598H36.4998V26.935C36.4998 27.271 36.5651 27.5277 36.6958 27.705C36.8311 27.8823 37.0365 27.9827 37.3118 28.006L37.6898 28.02V28.972C37.5731 29.0093 37.4518 29.0397 37.3258 29.063C37.2045 29.0863 37.0901 29.098 36.9828 29.098ZM41.0434 29.098C40.614 29.098 40.2687 29.042 40.0074 28.93C39.7507 28.818 39.5547 28.6687 39.4194 28.482C39.284 28.2907 39.193 28.076 39.1464 27.838C39.1044 27.5953 39.0834 27.3457 39.0834 27.089V18.598H40.5604V26.935C40.5604 27.271 40.6257 27.5277 40.7564 27.705C40.8917 27.8823 41.097 27.9827 41.3724 28.006L41.7504 28.02V28.972C41.6337 29.0093 41.5124 29.0397 41.3864 29.063C41.265 29.0863 41.1507 29.098 41.0434 29.098ZM50.6022 18.738C51.3302 18.738 51.9765 18.8873 52.5412 19.186C53.1059 19.4847 53.5585 19.886 53.8992 20.39C54.2445 20.894 54.4499 21.4517 54.5152 22.063H52.9192C52.8492 21.6803 52.7139 21.335 52.5132 21.027C52.3172 20.7143 52.0559 20.4693 51.7292 20.292C51.4025 20.11 51.0152 20.019 50.5672 20.019C49.9932 20.019 49.5055 20.1543 49.1042 20.425C48.7029 20.6957 48.3972 21.118 48.1872 21.692C47.9819 22.266 47.8792 23.0057 47.8792 23.911C47.8792 25.2783 48.1102 26.2793 48.5722 26.914C49.0342 27.544 49.6992 27.859 50.5672 27.859C51.0152 27.859 51.4025 27.7633 51.7292 27.572C52.0559 27.376 52.3172 27.117 52.5132 26.795C52.7139 26.4683 52.8492 26.1137 52.9192 25.731H54.5152C54.4592 26.1743 54.3425 26.6013 54.1652 27.012C53.9879 27.418 53.7405 27.782 53.4232 28.104C53.1105 28.426 52.7209 28.6803 52.2542 28.867C51.7875 29.049 51.2369 29.14 50.6022 29.14C49.6875 29.14 48.9035 28.93 48.2502 28.51C47.5969 28.0853 47.0952 27.4833 46.7452 26.704C46.3999 25.92 46.2272 24.982 46.2272 23.89C46.2272 22.8027 46.3999 21.8763 46.7452 21.111C47.0905 20.341 47.5899 19.753 48.2432 19.347C48.8965 18.941 49.6829 18.738 50.6022 18.738ZM58.1622 29.14C57.6955 29.14 57.2802 29.056 56.9162 28.888C56.5569 28.72 56.2745 28.4773 56.0692 28.16C55.8639 27.8427 55.7612 27.46 55.7612 27.012C55.7612 26.2093 56.0459 25.6097 56.6152 25.213C57.1845 24.8163 58.0922 24.6063 59.3382 24.583L60.5282 24.548V24.023C60.5282 23.6077 60.4045 23.281 60.1572 23.043C59.9099 22.805 59.5295 22.6883 59.0162 22.693C58.6289 22.693 58.2835 22.7817 57.9802 22.959C57.6815 23.1363 57.4855 23.428 57.3922 23.834H56.0902C56.1182 23.3533 56.2559 22.9497 56.5032 22.623C56.7552 22.2917 57.1005 22.042 57.5392 21.874C57.9779 21.706 58.4935 21.622 59.0862 21.622C59.7442 21.622 60.2855 21.713 60.7102 21.895C61.1349 22.0723 61.4499 22.3337 61.6552 22.679C61.8652 23.0243 61.9702 23.4443 61.9702 23.939V29H60.7032L60.5842 27.67C60.3135 28.2253 59.9705 28.6103 59.5552 28.825C59.1445 29.035 58.6802 29.14 58.1622 29.14ZM58.6312 28.097C58.8599 28.097 59.0862 28.0573 59.3102 27.978C59.5342 27.894 59.7372 27.782 59.9192 27.642C60.1012 27.4973 60.2459 27.3363 60.3532 27.159C60.4652 26.9817 60.5235 26.7997 60.5282 26.613V25.416L59.5482 25.437C59.0489 25.4417 58.6242 25.493 58.2742 25.591C57.9289 25.689 57.6629 25.8407 57.4762 26.046C57.2942 26.2513 57.2032 26.5243 57.2032 26.865C57.2032 27.2523 57.3385 27.5557 57.6092 27.775C57.8799 27.9897 58.2205 28.097 58.6312 28.097ZM67.6134 22.84H65.9894L65.9964 27.159C65.9964 27.397 66.0197 27.572 66.0664 27.684C66.1177 27.7913 66.2017 27.8613 66.3184 27.894C66.4397 27.922 66.6031 27.936 66.8084 27.936H67.6554V28.909C67.5621 28.9463 67.4221 28.979 67.2354 29.007C67.0534 29.035 66.8177 29.049 66.5284 29.049C65.9917 29.049 65.5741 28.9767 65.2754 28.832C64.9814 28.6873 64.7761 28.4797 64.6594 28.209C64.5474 27.9337 64.4914 27.6023 64.4914 27.215V22.84H63.3154V21.762H64.5334L64.9044 19.634H65.9894V21.755H67.6134V22.84ZM70.3228 25.731C70.3228 26.165 70.3928 26.5547 70.5328 26.9C70.6775 27.2407 70.8945 27.5113 71.1838 27.712C71.4732 27.908 71.8325 28.006 72.2618 28.006C72.6912 28.006 73.0622 27.908 73.3748 27.712C73.6922 27.516 73.8998 27.2243 73.9978 26.837H75.3838C75.2998 27.3317 75.1015 27.7517 74.7888 28.097C74.4808 28.4423 74.1075 28.7037 73.6688 28.881C73.2302 29.0537 72.7705 29.14 72.2898 29.14C71.6038 29.14 70.9995 28.993 70.4768 28.699C69.9542 28.4003 69.5458 27.9757 69.2518 27.425C68.9625 26.8743 68.8178 26.2187 68.8178 25.458C68.8178 24.7067 68.9508 24.044 69.2168 23.47C69.4828 22.8913 69.8678 22.4387 70.3718 22.112C70.8758 21.7853 71.4825 21.622 72.1918 21.622C72.8918 21.622 73.4798 21.7713 73.9558 22.07C74.4365 22.3687 74.8005 22.7887 75.0478 23.33C75.2952 23.8667 75.4188 24.5013 75.4188 25.234V25.731H70.3228ZM70.3228 24.758H73.9908C73.9908 24.38 73.9255 24.037 73.7948 23.729C73.6642 23.4163 73.4635 23.1713 73.1928 22.994C72.9268 22.812 72.5908 22.721 72.1848 22.721C71.7695 22.721 71.4242 22.8213 71.1488 23.022C70.8735 23.2227 70.6658 23.4793 70.5258 23.792C70.3905 24.1047 70.3228 24.4267 70.3228 24.758ZM80.1725 31.394C78.9965 31.394 78.0865 31.2283 77.4425 30.897C76.7985 30.5703 76.4765 30.113 76.4765 29.525C76.4765 29.2683 76.5372 29.0513 76.6585 28.874C76.7845 28.692 76.9315 28.5427 77.0995 28.426C77.2722 28.3093 77.4308 28.2183 77.5755 28.153C77.7202 28.083 77.8135 28.034 77.8555 28.006C77.7762 27.9593 77.6735 27.901 77.5475 27.831C77.4262 27.7563 77.3165 27.6583 77.2185 27.537C77.1205 27.411 77.0715 27.2477 77.0715 27.047C77.0715 26.8137 77.1812 26.599 77.4005 26.403C77.6245 26.2023 77.9582 26.0553 78.4015 25.962C77.9628 25.7473 77.6222 25.458 77.3795 25.094C77.1415 24.73 77.0225 24.3427 77.0225 23.932C77.0225 23.4607 77.1555 23.0547 77.4215 22.714C77.6875 22.3687 78.0608 22.105 78.5415 21.923C79.0268 21.741 79.5962 21.65 80.2495 21.65C80.7255 21.65 81.1245 21.7037 81.4465 21.811C81.7685 21.9183 82.0648 22.0677 82.3355 22.259C82.4242 22.2263 82.5502 22.1773 82.7135 22.112C82.8768 22.042 83.0565 21.9673 83.2525 21.888C83.4532 21.8087 83.6422 21.7317 83.8195 21.657C84.0015 21.5823 84.1485 21.5217 84.2605 21.475L84.2535 22.777L82.9935 23.008C83.0588 23.148 83.1102 23.302 83.1475 23.47C83.1895 23.638 83.2105 23.792 83.2105 23.932C83.2105 24.352 83.0962 24.7393 82.8675 25.094C82.6388 25.444 82.2958 25.724 81.8385 25.934C81.3812 26.144 80.8095 26.249 80.1235 26.249C80.0582 26.249 79.9742 26.249 79.8715 26.249C79.7688 26.2443 79.6825 26.2373 79.6125 26.228C79.1785 26.242 78.8798 26.2933 78.7165 26.382C78.5532 26.466 78.4715 26.5593 78.4715 26.662C78.4715 26.7927 78.5765 26.8813 78.7865 26.928C78.9965 26.9747 79.3418 27.0143 79.8225 27.047C79.9952 27.061 80.2145 27.075 80.4805 27.089C80.7512 27.103 81.0498 27.1217 81.3765 27.145C82.1698 27.1917 82.7742 27.39 83.1895 27.74C83.6095 28.09 83.8195 28.5543 83.8195 29.133C83.8195 29.7957 83.5185 30.337 82.9165 30.757C82.3145 31.1817 81.3998 31.394 80.1725 31.394ZM80.4315 30.477C81.0708 30.477 81.5515 30.3837 81.8735 30.197C82.2002 30.015 82.3635 29.742 82.3635 29.378C82.3635 29.1073 82.2585 28.8857 82.0485 28.713C81.8385 28.5403 81.5258 28.44 81.1105 28.412L79.1785 28.286C78.9872 28.2767 78.7958 28.3187 78.6045 28.412C78.4178 28.5053 78.2615 28.636 78.1355 28.804C78.0142 28.9673 77.9535 29.1493 77.9535 29.35C77.9535 29.714 78.1542 29.9917 78.5555 30.183C78.9615 30.379 79.5868 30.477 80.4315 30.477ZM80.1655 25.332C80.6508 25.332 81.0405 25.2153 81.3345 24.982C81.6332 24.744 81.7825 24.4033 81.7825 23.96C81.7825 23.5027 81.6332 23.1503 81.3345 22.903C81.0405 22.651 80.6508 22.525 80.1655 22.525C79.6755 22.525 79.2788 22.651 78.9755 22.903C78.6768 23.155 78.5275 23.5073 78.5275 23.96C78.5275 24.3893 78.6698 24.7253 78.9545 24.968C79.2438 25.2107 79.6475 25.332 80.1655 25.332ZM88.4804 29.14C87.8037 29.14 87.2111 28.9953 86.7024 28.706C86.1984 28.412 85.8064 27.9873 85.5264 27.432C85.2511 26.8767 85.1134 26.2047 85.1134 25.416C85.1134 24.6553 85.2441 23.9903 85.5054 23.421C85.7714 22.8517 86.1564 22.4107 86.6604 22.098C87.1644 21.7807 87.7734 21.622 88.4874 21.622C89.1687 21.622 89.7591 21.7713 90.2584 22.07C90.7577 22.364 91.1451 22.7957 91.4204 23.365C91.6957 23.9297 91.8334 24.6133 91.8334 25.416C91.8334 26.1487 91.7027 26.795 91.4414 27.355C91.1847 27.915 90.8067 28.3537 90.3074 28.671C89.8127 28.9837 89.2037 29.14 88.4804 29.14ZM88.4874 27.985C88.8981 27.985 89.2411 27.8777 89.5164 27.663C89.7964 27.4437 90.0064 27.138 90.1464 26.746C90.2864 26.3493 90.3564 25.892 90.3564 25.374C90.3564 24.8933 90.2934 24.457 90.1674 24.065C90.0461 23.6683 89.8477 23.3533 89.5724 23.12C89.2971 22.8867 88.9354 22.77 88.4874 22.77C88.0674 22.77 87.7174 22.8773 87.4374 23.092C87.1574 23.302 86.9451 23.603 86.8004 23.995C86.6604 24.3823 86.5904 24.842 86.5904 25.374C86.5904 25.8453 86.6534 26.2793 86.7794 26.676C86.9054 27.0727 87.1084 27.39 87.3884 27.628C87.6684 27.866 88.0347 27.985 88.4874 27.985ZM93.4427 29V21.762H94.8777V23.246C94.9991 22.8913 95.1671 22.595 95.3817 22.357C95.6011 22.1143 95.8554 21.9323 96.1447 21.811C96.4341 21.685 96.7397 21.622 97.0617 21.622C97.1597 21.622 97.2531 21.629 97.3417 21.643C97.4304 21.6523 97.5004 21.671 97.5517 21.699V23.141C97.4911 23.113 97.4117 23.0943 97.3137 23.085C97.2204 23.0757 97.1387 23.0687 97.0687 23.064C96.7514 23.0407 96.4621 23.057 96.2007 23.113C95.9394 23.169 95.7131 23.2623 95.5217 23.393C95.3351 23.5237 95.1904 23.694 95.0877 23.904C94.9897 24.114 94.9407 24.3613 94.9407 24.646V29H93.4427ZM100.093 31.31C99.6496 31.31 99.3416 31.2773 99.169 31.212C99.001 31.1467 98.917 31.114 98.917 31.114V30.148L99.652 30.162C99.932 30.176 100.161 30.1597 100.338 30.113C100.52 30.0663 100.662 30.001 100.765 29.917C100.872 29.8377 100.954 29.7513 101.01 29.658C101.066 29.5647 101.108 29.4783 101.136 29.399L101.36 28.79L98.539 21.762H100.037L102.067 27.11L104.083 21.762H105.553L102.536 29.406C102.331 29.91 102.104 30.2997 101.857 30.575C101.614 30.8503 101.346 31.0417 101.052 31.149C100.758 31.2563 100.438 31.31 100.093 31.31Z" fill="#191C1F"/>
<path d="M127 22L122 27L117 22" stroke="#191C1F" stroke-width="1.5" stroke-linecap="round" stroke-linejoin="round"/>
</svg>
