<svg width="89" height="24" viewBox="0 0 89 24" fill="none" xmlns="http://www.w3.org/2000/svg">
<path d="M7.48126 9.34687H2.98126V4.84687" stroke="#5F6C72" stroke-width="1.5" stroke-linecap="round" stroke-linejoin="round"/>
<path d="M17.8313 6.16875C17.0659 5.40226 16.1569 4.79419 15.1563 4.37931C14.1558 3.96442 13.0832 3.75088 12 3.75088C10.9168 3.75088 9.84427 3.96442 8.84369 4.37931C7.8431 4.79419 6.93413 5.40226 6.16876 6.16875L2.98126 9.34687" stroke="#5F6C72" stroke-width="1.5" stroke-linecap="round" stroke-linejoin="round"/>
<path d="M16.5187 14.6531H21.0187V19.1531" stroke="#5F6C72" stroke-width="1.5" stroke-linecap="round" stroke-linejoin="round"/>
<path d="M6.16876 17.8312C6.93413 18.5977 7.8431 19.2058 8.84368 19.6207C9.84427 20.0356 10.9168 20.2491 12 20.2491C13.0832 20.2491 14.1558 20.0356 15.1563 19.6207C16.1569 19.2058 17.0659 18.5977 17.8313 17.8312L21.0188 14.6531" stroke="#5F6C72" stroke-width="1.5" stroke-linecap="round" stroke-linejoin="round"/>
<path d="M35.061 6.738C35.775 6.738 36.4073 6.88733 36.958 7.186C37.5087 7.48 37.952 7.87433 38.288 8.369C38.624 8.86367 38.8223 9.40733 38.883 10H37.504C37.4293 9.60333 37.287 9.244 37.077 8.922C36.867 8.6 36.5917 8.34333 36.251 8.152C35.9103 7.96067 35.502 7.865 35.026 7.865C34.4147 7.865 33.8967 8.00967 33.472 8.299C33.052 8.58367 32.7323 9.02467 32.513 9.622C32.2983 10.2193 32.191 10.9847 32.191 11.918C32.191 13.3273 32.4313 14.3633 32.912 15.026C33.3973 15.684 34.102 16.013 35.026 16.013C35.502 16.013 35.9103 15.9127 36.251 15.712C36.5917 15.5113 36.867 15.243 37.077 14.907C37.287 14.571 37.4293 14.207 37.504 13.815H38.883C38.8317 14.2443 38.715 14.6597 38.533 15.061C38.3557 15.4577 38.1107 15.8123 37.798 16.125C37.4853 16.4377 37.1003 16.685 36.643 16.867C36.1903 17.049 35.663 17.14 35.061 17.14C34.151 17.14 33.374 16.9323 32.73 16.517C32.0907 16.1017 31.6007 15.5043 31.26 14.725C30.924 13.9457 30.756 13.0053 30.756 11.904C30.756 10.8073 30.924 9.874 31.26 9.104C31.596 8.334 32.0837 7.74833 32.723 7.347C33.367 6.941 34.1463 6.738 35.061 6.738ZM43.573 17.14C42.9057 17.14 42.3223 16.9977 41.823 16.713C41.3237 16.4237 40.9363 16.0013 40.661 15.446C40.3857 14.8907 40.248 14.2117 40.248 13.409C40.248 12.653 40.3763 11.9903 40.633 11.421C40.8897 10.8517 41.2653 10.4107 41.76 10.098C42.2593 9.78067 42.8637 9.622 43.573 9.622C44.2403 9.622 44.819 9.769 45.309 10.063C45.8037 10.3523 46.1863 10.7793 46.457 11.344C46.7277 11.9087 46.863 12.597 46.863 13.409C46.863 14.1463 46.737 14.795 46.485 15.355C46.2377 15.915 45.869 16.3537 45.379 16.671C44.8937 16.9837 44.2917 17.14 43.573 17.14ZM43.573 16.118C44.007 16.118 44.3733 16.0083 44.672 15.789C44.9707 15.5697 45.197 15.2547 45.351 14.844C45.505 14.4333 45.582 13.9457 45.582 13.381C45.582 12.863 45.5143 12.3987 45.379 11.988C45.2437 11.5727 45.0267 11.2437 44.728 11.001C44.434 10.7583 44.049 10.637 43.573 10.637C43.1343 10.637 42.7633 10.7467 42.46 10.966C42.1567 11.1807 41.9257 11.4933 41.767 11.904C41.613 12.3147 41.536 12.807 41.536 13.381C41.536 13.8897 41.606 14.3517 41.746 14.767C41.886 15.1823 42.1053 15.5113 42.404 15.754C42.7027 15.9967 43.0923 16.118 43.573 16.118ZM48.5573 17V9.762H49.8033V10.812C50.004 10.4947 50.2793 10.217 50.6293 9.979C50.9793 9.741 51.4343 9.622 51.9943 9.622C52.2557 9.622 52.5217 9.66633 52.7923 9.755C53.0677 9.84367 53.3197 9.97667 53.5483 10.154C53.777 10.3313 53.9543 10.5483 54.0803 10.805C54.3043 10.4503 54.6077 10.1657 54.9903 9.951C55.373 9.73167 55.8047 9.622 56.2853 9.622C56.5373 9.622 56.801 9.66167 57.0763 9.741C57.3517 9.81567 57.606 9.951 57.8393 10.147C58.0773 10.3383 58.271 10.6067 58.4203 10.952C58.5697 11.2927 58.6443 11.7313 58.6443 12.268V17H57.3423V12.394C57.3423 11.9553 57.2723 11.617 57.1323 11.379C56.9923 11.1363 56.808 10.966 56.5793 10.868C56.3553 10.77 56.115 10.721 55.8583 10.721C55.6343 10.721 55.3963 10.7653 55.1443 10.854C54.8923 10.9427 54.6777 11.092 54.5003 11.302C54.323 11.512 54.2343 11.799 54.2343 12.163V17H52.9463V12.016C52.9463 11.7313 52.8693 11.4933 52.7153 11.302C52.566 11.1107 52.377 10.966 52.1483 10.868C51.9243 10.77 51.7003 10.721 51.4763 10.721C51.229 10.721 50.9793 10.77 50.7273 10.868C50.48 10.966 50.27 11.1223 50.0973 11.337C49.9293 11.547 49.8453 11.8223 49.8453 12.163V17H48.5573ZM60.6706 19.254V9.762H61.9586L61.9726 11.022C62.0566 10.8727 62.1639 10.7163 62.2946 10.553C62.4299 10.3897 62.5933 10.238 62.7846 10.098C62.9806 9.958 63.2069 9.84367 63.4636 9.755C63.7249 9.66633 64.0213 9.622 64.3526 9.622C64.9313 9.622 65.4399 9.755 65.8786 10.021C66.3219 10.2823 66.6673 10.6837 66.9146 11.225C67.1619 11.7663 67.2856 12.4523 67.2856 13.283C67.2856 14.1137 67.1643 14.816 66.9216 15.39C66.6836 15.9593 66.3383 16.3933 65.8856 16.692C65.4329 16.9907 64.8869 17.14 64.2476 17.14C63.9256 17.14 63.6386 17.0933 63.3866 17C63.1393 16.9113 62.9223 16.7947 62.7356 16.65C62.5536 16.5007 62.3996 16.342 62.2736 16.174C62.1523 16.006 62.0519 15.845 61.9726 15.691V19.254H60.6706ZM64.0026 16.132C64.5999 16.132 65.0876 15.9057 65.4656 15.453C65.8436 14.9957 66.0326 14.2863 66.0326 13.325C66.0326 12.499 65.8599 11.8433 65.5146 11.358C65.1693 10.8727 64.6653 10.63 64.0026 10.63C63.3306 10.63 62.8219 10.8797 62.4766 11.379C62.1313 11.8737 61.9586 12.5223 61.9586 13.325C61.9586 13.843 62.0356 14.3143 62.1896 14.739C62.3436 15.1637 62.5723 15.502 62.8756 15.754C63.1789 16.006 63.5546 16.132 64.0026 16.132ZM70.9031 17.14C70.4364 17.14 70.0234 17.0583 69.6641 16.895C69.3047 16.727 69.0224 16.4867 68.8171 16.174C68.6164 15.8613 68.5161 15.4833 68.5161 15.04C68.5161 14.2373 68.7961 13.64 69.3561 13.248C69.9161 12.856 70.8144 12.646 72.0511 12.618L73.3461 12.583V12.016C73.3461 11.5727 73.2131 11.2227 72.9471 10.966C72.6811 10.7047 72.2681 10.574 71.7081 10.574C71.2927 10.5787 70.9264 10.6767 70.6091 10.868C70.2964 11.0593 70.0934 11.372 70.0001 11.806H68.8591C68.8871 11.3347 69.0201 10.938 69.2581 10.616C69.4961 10.2893 69.8274 10.042 70.2521 9.874C70.6814 9.706 71.1877 9.622 71.7711 9.622C72.4011 9.622 72.9237 9.71067 73.3391 9.888C73.7591 10.0653 74.0717 10.3267 74.2771 10.672C74.4871 11.0173 74.5921 11.442 74.5921 11.946V17H73.4861L73.3951 15.642C73.1151 16.2067 72.7581 16.5987 72.3241 16.818C71.8947 17.0327 71.4211 17.14 70.9031 17.14ZM71.2951 16.209C71.5377 16.209 71.7781 16.1647 72.0161 16.076C72.2587 15.9873 72.4804 15.8683 72.6811 15.719C72.8817 15.565 73.0404 15.3947 73.1571 15.208C73.2784 15.0167 73.3414 14.8207 73.3461 14.62V13.381L72.2681 13.402C71.7174 13.4113 71.2554 13.4673 70.8821 13.57C70.5134 13.6727 70.2357 13.8337 70.0491 14.053C69.8671 14.2723 69.7761 14.5593 69.7761 14.914C69.7761 15.32 69.9161 15.6373 70.1961 15.866C70.4807 16.0947 70.8471 16.209 71.2951 16.209ZM76.8034 17V9.762H78.0354V11.155C78.1568 10.8097 78.3271 10.525 78.5464 10.301C78.7658 10.0723 79.0154 9.902 79.2954 9.79C79.5801 9.678 79.8741 9.622 80.1774 9.622C80.2848 9.622 80.3898 9.629 80.4924 9.643C80.5951 9.657 80.6744 9.68033 80.7304 9.713V10.966C80.6604 10.9333 80.5694 10.9123 80.4574 10.903C80.3501 10.889 80.2591 10.882 80.1844 10.882C79.8951 10.8633 79.6244 10.882 79.3724 10.938C79.1204 10.9893 78.8988 11.0803 78.7074 11.211C78.5161 11.3417 78.3644 11.5143 78.2524 11.729C78.1451 11.939 78.0914 12.1957 78.0914 12.499V17H76.8034ZM83.0048 13.682C83.0048 14.1393 83.0794 14.5547 83.2288 14.928C83.3828 15.2967 83.6138 15.5907 83.9218 15.81C84.2344 16.0293 84.6241 16.139 85.0908 16.139C85.5528 16.139 85.9494 16.0317 86.2808 15.817C86.6168 15.6023 86.8314 15.292 86.9248 14.886H88.1498C88.0611 15.376 87.8651 15.789 87.5618 16.125C87.2584 16.461 86.8921 16.7153 86.4628 16.888C86.0334 17.056 85.5854 17.14 85.1188 17.14C84.4421 17.14 83.8471 16.993 83.3338 16.699C82.8204 16.405 82.4191 15.9827 82.1298 15.432C81.8404 14.8813 81.6958 14.221 81.6958 13.451C81.6958 12.6903 81.8264 12.023 82.0878 11.449C82.3491 10.875 82.7271 10.427 83.2218 10.105C83.7211 9.783 84.3208 9.622 85.0208 9.622C85.7021 9.622 86.2784 9.769 86.7498 10.063C87.2211 10.357 87.5781 10.7723 87.8208 11.309C88.0681 11.841 88.1918 12.4733 88.1918 13.206V13.682H83.0048ZM83.0118 12.807H86.9458C86.9458 12.3917 86.8758 12.0183 86.7358 11.687C86.5958 11.351 86.3811 11.0873 86.0918 10.896C85.8071 10.7 85.4478 10.602 85.0138 10.602C84.5611 10.602 84.1854 10.7117 83.8868 10.931C83.5928 11.1457 83.3711 11.4233 83.2218 11.764C83.0771 12.1 83.0071 12.4477 83.0118 12.807Z" fill="#5F6C72"/>
</svg>
