<svg width="150" height="24" viewBox="0 0 150 24" fill="none" xmlns="http://www.w3.org/2000/svg">
<path d="M21.1406 12.75H18.1406C17.7428 12.75 17.3613 12.908 17.08 13.1893C16.7987 13.4706 16.6406 13.8522 16.6406 14.25V18C16.6406 18.3978 16.7987 18.7794 17.08 19.0607C17.3613 19.342 17.7428 19.5 18.1406 19.5H19.6406C20.0384 19.5 20.42 19.342 20.7013 19.0607C20.9826 18.7794 21.1406 18.3978 21.1406 18V12.75ZM21.1406 12.75C21.1407 11.5618 20.9054 10.3853 20.4484 9.28844C19.9915 8.19159 19.3218 7.19609 18.4781 6.35938C17.6344 5.52266 16.6334 4.86129 15.5328 4.41344C14.4322 3.96558 13.2538 3.7401 12.0656 3.75C10.8782 3.74134 9.70083 3.96774 8.60132 4.41616C7.5018 4.86457 6.50189 5.52613 5.6592 6.36272C4.81651 7.19931 4.1477 8.19439 3.69131 9.29062C3.23492 10.3869 2.99997 11.5626 3 12.75V18C3 18.3978 3.15804 18.7794 3.43934 19.0607C3.72064 19.342 4.10218 19.5 4.5 19.5H6C6.39782 19.5 6.77936 19.342 7.06066 19.0607C7.34196 18.7794 7.5 18.3978 7.5 18V14.25C7.5 13.8522 7.34196 13.4706 7.06066 13.1893C6.77936 12.908 6.39782 12.75 6 12.75H3" stroke="#5F6C72" stroke-width="1.5" stroke-linecap="round" stroke-linejoin="round"/>
<path d="M35.061 6.738C35.775 6.738 36.4073 6.88733 36.958 7.186C37.5087 7.48 37.952 7.87433 38.288 8.369C38.624 8.86367 38.8223 9.40733 38.883 10H37.504C37.4293 9.60333 37.287 9.244 37.077 8.922C36.867 8.6 36.5917 8.34333 36.251 8.152C35.9103 7.96067 35.502 7.865 35.026 7.865C34.4147 7.865 33.8967 8.00967 33.472 8.299C33.052 8.58367 32.7323 9.02467 32.513 9.622C32.2983 10.2193 32.191 10.9847 32.191 11.918C32.191 13.3273 32.4313 14.3633 32.912 15.026C33.3973 15.684 34.102 16.013 35.026 16.013C35.502 16.013 35.9103 15.9127 36.251 15.712C36.5917 15.5113 36.867 15.243 37.077 14.907C37.287 14.571 37.4293 14.207 37.504 13.815H38.883C38.8317 14.2443 38.715 14.6597 38.533 15.061C38.3557 15.4577 38.1107 15.8123 37.798 16.125C37.4853 16.4377 37.1003 16.685 36.643 16.867C36.1903 17.049 35.663 17.14 35.061 17.14C34.151 17.14 33.374 16.9323 32.73 16.517C32.0907 16.1017 31.6007 15.5043 31.26 14.725C30.924 13.9457 30.756 13.0053 30.756 11.904C30.756 10.8073 30.924 9.874 31.26 9.104C31.596 8.334 32.0837 7.74833 32.723 7.347C33.367 6.941 34.1463 6.738 35.061 6.738ZM43.3697 17.14C42.9917 17.1353 42.6347 17.0817 42.2987 16.979C41.9673 16.8717 41.6733 16.7153 41.4167 16.51C41.16 16.3047 40.957 16.0503 40.8077 15.747C40.663 15.439 40.5907 15.082 40.5907 14.676V9.762H41.8857V14.543C41.8857 15.0143 42.0303 15.397 42.3197 15.691C42.6137 15.985 43.0547 16.132 43.6427 16.132C44.1747 16.132 44.6017 15.9943 44.9237 15.719C45.2503 15.439 45.4137 15.0237 45.4137 14.473V9.762H46.7017V17H45.6727L45.5397 15.614C45.451 15.978 45.2993 16.272 45.0847 16.496C44.8747 16.72 44.6203 16.8857 44.3217 16.993C44.0277 17.0957 43.7103 17.1447 43.3697 17.14ZM51.2904 17.14C50.7864 17.14 50.3174 17.063 49.8834 16.909C49.4541 16.7503 49.0971 16.5053 48.8124 16.174C48.5277 15.838 48.3481 15.411 48.2734 14.893H49.4494C49.5147 15.1777 49.6314 15.4157 49.7994 15.607C49.9721 15.7937 50.1867 15.936 50.4434 16.034C50.7001 16.1273 50.9801 16.174 51.2834 16.174C51.7687 16.174 52.1607 16.083 52.4594 15.901C52.7581 15.719 52.9074 15.439 52.9074 15.061C52.9074 14.795 52.8281 14.5827 52.6694 14.424C52.5154 14.2607 52.2751 14.1417 51.9484 14.067L50.4504 13.696C49.8671 13.556 49.4004 13.3367 49.0504 13.038C48.7004 12.7393 48.5254 12.3217 48.5254 11.785C48.5207 11.3603 48.6211 10.987 48.8264 10.665C49.0317 10.343 49.3397 10.0887 49.7504 9.902C50.1611 9.71533 50.6721 9.622 51.2834 9.622C52.0674 9.622 52.6997 9.79933 53.1804 10.154C53.6657 10.504 53.9177 11.0197 53.9364 11.701H52.7954C52.7487 11.3557 52.5924 11.0827 52.3264 10.882C52.0651 10.6767 51.7127 10.574 51.2694 10.574C50.8074 10.574 50.4317 10.6673 50.1424 10.854C49.8531 11.036 49.7084 11.3207 49.7084 11.708C49.7084 11.9647 49.8111 12.1677 50.0164 12.317C50.2217 12.4617 50.5251 12.583 50.9264 12.681L52.3754 13.045C52.7114 13.1337 52.9867 13.2503 53.2014 13.395C53.4207 13.5397 53.5934 13.7007 53.7194 13.878C53.8501 14.0553 53.9411 14.242 53.9924 14.438C54.0484 14.6293 54.0764 14.8137 54.0764 14.991C54.0764 15.4343 53.9644 15.817 53.7404 16.139C53.5211 16.4563 53.2037 16.7037 52.7884 16.881C52.3777 17.0537 51.8784 17.14 51.2904 17.14ZM59.3987 10.707H57.7677V15.208C57.7677 15.4647 57.7934 15.6537 57.8447 15.775C57.9007 15.8917 57.9917 15.9663 58.1177 15.999C58.2484 16.0317 58.4257 16.048 58.6497 16.048H59.4407V16.916C59.352 16.9487 59.2167 16.9767 59.0347 17C58.8574 17.0233 58.6357 17.035 58.3697 17.035C57.8704 17.035 57.483 16.9673 57.2077 16.832C56.9324 16.6967 56.7387 16.496 56.6267 16.23C56.5194 15.964 56.4657 15.6373 56.4657 15.25V10.707H55.2897V9.762H56.5007L56.8157 7.655H57.7677V9.755H59.3987V10.707ZM63.9441 17.14C63.2768 17.14 62.6934 16.9977 62.1941 16.713C61.6948 16.4237 61.3074 16.0013 61.0321 15.446C60.7568 14.8907 60.6191 14.2117 60.6191 13.409C60.6191 12.653 60.7474 11.9903 61.0041 11.421C61.2608 10.8517 61.6364 10.4107 62.1311 10.098C62.6304 9.78067 63.2348 9.622 63.9441 9.622C64.6114 9.622 65.1901 9.769 65.6801 10.063C66.1748 10.3523 66.5574 10.7793 66.8281 11.344C67.0988 11.9087 67.2341 12.597 67.2341 13.409C67.2341 14.1463 67.1081 14.795 66.8561 15.355C66.6088 15.915 66.2401 16.3537 65.7501 16.671C65.2648 16.9837 64.6628 17.14 63.9441 17.14ZM63.9441 16.118C64.3781 16.118 64.7444 16.0083 65.0431 15.789C65.3418 15.5697 65.5681 15.2547 65.7221 14.844C65.8761 14.4333 65.9531 13.9457 65.9531 13.381C65.9531 12.863 65.8854 12.3987 65.7501 11.988C65.6148 11.5727 65.3978 11.2437 65.0991 11.001C64.8051 10.7583 64.4201 10.637 63.9441 10.637C63.5054 10.637 63.1344 10.7467 62.8311 10.966C62.5278 11.1807 62.2968 11.4933 62.1381 11.904C61.9841 12.3147 61.9071 12.807 61.9071 13.381C61.9071 13.8897 61.9771 14.3517 62.1171 14.767C62.2571 15.1823 62.4764 15.5113 62.7751 15.754C63.0738 15.9967 63.4634 16.118 63.9441 16.118ZM68.9284 17V9.762H70.1744V10.812C70.3751 10.4947 70.6504 10.217 71.0004 9.979C71.3504 9.741 71.8054 9.622 72.3654 9.622C72.6268 9.622 72.8928 9.66633 73.1634 9.755C73.4388 9.84367 73.6908 9.97667 73.9194 10.154C74.1481 10.3313 74.3254 10.5483 74.4514 10.805C74.6754 10.4503 74.9788 10.1657 75.3614 9.951C75.7441 9.73167 76.1758 9.622 76.6564 9.622C76.9084 9.622 77.1721 9.66167 77.4474 9.741C77.7228 9.81567 77.9771 9.951 78.2104 10.147C78.4484 10.3383 78.6421 10.6067 78.7914 10.952C78.9408 11.2927 79.0154 11.7313 79.0154 12.268V17H77.7134V12.394C77.7134 11.9553 77.6434 11.617 77.5034 11.379C77.3634 11.1363 77.1791 10.966 76.9504 10.868C76.7264 10.77 76.4861 10.721 76.2294 10.721C76.0054 10.721 75.7674 10.7653 75.5154 10.854C75.2634 10.9427 75.0488 11.092 74.8714 11.302C74.6941 11.512 74.6054 11.799 74.6054 12.163V17H73.3174V12.016C73.3174 11.7313 73.2404 11.4933 73.0864 11.302C72.9371 11.1107 72.7481 10.966 72.5194 10.868C72.2954 10.77 72.0714 10.721 71.8474 10.721C71.6001 10.721 71.3504 10.77 71.0984 10.868C70.8511 10.966 70.6411 11.1223 70.4684 11.337C70.3004 11.547 70.2164 11.8223 70.2164 12.163V17H68.9284ZM81.9657 13.682C81.9657 14.1393 82.0404 14.5547 82.1897 14.928C82.3437 15.2967 82.5747 15.5907 82.8827 15.81C83.1954 16.0293 83.585 16.139 84.0517 16.139C84.5137 16.139 84.9104 16.0317 85.2417 15.817C85.5777 15.6023 85.7924 15.292 85.8857 14.886H87.1107C87.022 15.376 86.826 15.789 86.5227 16.125C86.2194 16.461 85.853 16.7153 85.4237 16.888C84.9944 17.056 84.5464 17.14 84.0797 17.14C83.403 17.14 82.808 16.993 82.2947 16.699C81.7814 16.405 81.38 15.9827 81.0907 15.432C80.8014 14.8813 80.6567 14.221 80.6567 13.451C80.6567 12.6903 80.7874 12.023 81.0487 11.449C81.31 10.875 81.688 10.427 82.1827 10.105C82.682 9.783 83.2817 9.622 83.9817 9.622C84.663 9.622 85.2394 9.769 85.7107 10.063C86.182 10.357 86.539 10.7723 86.7817 11.309C87.029 11.841 87.1527 12.4733 87.1527 13.206V13.682H81.9657ZM81.9727 12.807H85.9067C85.9067 12.3917 85.8367 12.0183 85.6967 11.687C85.5567 11.351 85.342 11.0873 85.0527 10.896C84.768 10.7 84.4087 10.602 83.9747 10.602C83.522 10.602 83.1464 10.7117 82.8477 10.931C82.5537 11.1457 82.332 11.4233 82.1827 11.764C82.038 12.1 81.968 12.4477 81.9727 12.807ZM88.9304 17V9.762H90.1624V11.155C90.2837 10.8097 90.454 10.525 90.6734 10.301C90.8927 10.0723 91.1424 9.902 91.4224 9.79C91.707 9.678 92.001 9.622 92.3044 9.622C92.4117 9.622 92.5167 9.629 92.6194 9.643C92.722 9.657 92.8014 9.68033 92.8574 9.713V10.966C92.7874 10.9333 92.6964 10.9123 92.5844 10.903C92.477 10.889 92.386 10.882 92.3114 10.882C92.022 10.8633 91.7514 10.882 91.4994 10.938C91.2474 10.9893 91.0257 11.0803 90.8344 11.211C90.643 11.3417 90.4914 11.5143 90.3794 11.729C90.272 11.939 90.2184 12.1957 90.2184 12.499V17H88.9304ZM101.288 17.14C100.812 17.14 100.35 17.0817 99.9017 16.965C99.4537 16.8437 99.0477 16.664 98.6837 16.426C98.3197 16.188 98.0163 15.894 97.7737 15.544C97.5357 15.1893 97.3863 14.7787 97.3257 14.312H98.6837C98.7677 14.6947 98.9333 15.0167 99.1807 15.278C99.4327 15.5393 99.7383 15.7353 100.098 15.866C100.462 15.9967 100.856 16.062 101.281 16.062C101.757 16.062 102.181 15.9967 102.555 15.866C102.933 15.7307 103.229 15.5393 103.444 15.292C103.663 15.0447 103.773 14.7483 103.773 14.403C103.773 14.0997 103.703 13.836 103.563 13.612C103.427 13.388 103.229 13.2013 102.968 13.052C102.706 12.9027 102.389 12.786 102.016 12.702L100.028 12.24C99.281 12.0767 98.6953 11.785 98.2707 11.365C97.8507 10.945 97.636 10.3897 97.6267 9.699C97.6267 9.11567 97.7807 8.60233 98.0887 8.159C98.4013 7.71567 98.8283 7.37033 99.3697 7.123C99.9157 6.87567 100.539 6.752 101.239 6.752C102.046 6.752 102.725 6.88967 103.276 7.165C103.826 7.44033 104.242 7.802 104.522 8.25C104.802 8.698 104.944 9.17633 104.949 9.685H103.612C103.57 9.22767 103.434 8.866 103.206 8.6C102.982 8.32933 102.699 8.138 102.359 8.026C102.018 7.90933 101.647 7.851 101.246 7.851C100.956 7.851 100.676 7.88833 100.406 7.963C100.14 8.033 99.8993 8.14033 99.6847 8.285C99.4747 8.42967 99.3067 8.60933 99.1807 8.824C99.0547 9.03867 98.9917 9.28833 98.9917 9.573C98.9917 9.937 99.1153 10.2333 99.3627 10.462C99.6147 10.6907 100.07 10.8867 100.728 11.05L102.653 11.512C103.157 11.6193 103.567 11.778 103.885 11.988C104.207 12.198 104.454 12.436 104.627 12.702C104.804 12.968 104.925 13.2457 104.991 13.535C105.061 13.8243 105.096 14.109 105.096 14.389C105.096 14.8977 104.944 15.362 104.641 15.782C104.337 16.1973 103.901 16.5287 103.332 16.776C102.767 17.0187 102.086 17.14 101.288 17.14ZM109.678 17.14C109.3 17.1353 108.943 17.0817 108.607 16.979C108.276 16.8717 107.982 16.7153 107.725 16.51C107.469 16.3047 107.266 16.0503 107.116 15.747C106.972 15.439 106.899 15.082 106.899 14.676V9.762H108.194V14.543C108.194 15.0143 108.339 15.397 108.628 15.691C108.922 15.985 109.363 16.132 109.951 16.132C110.483 16.132 110.91 15.9943 111.232 15.719C111.559 15.439 111.722 15.0237 111.722 14.473V9.762H113.01V17H111.981L111.848 15.614C111.76 15.978 111.608 16.272 111.393 16.496C111.183 16.72 110.929 16.8857 110.63 16.993C110.336 17.0957 110.019 17.1447 109.678 17.14ZM115.112 19.254V9.762H116.4L116.414 11.022C116.498 10.8727 116.605 10.7163 116.736 10.553C116.871 10.3897 117.035 10.238 117.226 10.098C117.422 9.958 117.648 9.84367 117.905 9.755C118.166 9.66633 118.463 9.622 118.794 9.622C119.373 9.622 119.881 9.755 120.32 10.021C120.763 10.2823 121.109 10.6837 121.356 11.225C121.603 11.7663 121.727 12.4523 121.727 13.283C121.727 14.1137 121.606 14.816 121.363 15.39C121.125 15.9593 120.78 16.3933 120.327 16.692C119.874 16.9907 119.328 17.14 118.689 17.14C118.367 17.14 118.08 17.0933 117.828 17C117.581 16.9113 117.364 16.7947 117.177 16.65C116.995 16.5007 116.841 16.342 116.715 16.174C116.594 16.006 116.493 15.845 116.414 15.691V19.254H115.112ZM118.444 16.132C119.041 16.132 119.529 15.9057 119.907 15.453C120.285 14.9957 120.474 14.2863 120.474 13.325C120.474 12.499 120.301 11.8433 119.956 11.358C119.611 10.8727 119.107 10.63 118.444 10.63C117.772 10.63 117.263 10.8797 116.918 11.379C116.573 11.8737 116.4 12.5223 116.4 13.325C116.4 13.843 116.477 14.3143 116.631 14.739C116.785 15.1637 117.014 15.502 117.317 15.754C117.62 16.006 117.996 16.132 118.444 16.132ZM123.425 19.254V9.762H124.713L124.727 11.022C124.811 10.8727 124.918 10.7163 125.049 10.553C125.184 10.3897 125.347 10.238 125.539 10.098C125.735 9.958 125.961 9.84367 126.218 9.755C126.479 9.66633 126.775 9.622 127.107 9.622C127.685 9.622 128.194 9.755 128.633 10.021C129.076 10.2823 129.421 10.6837 129.669 11.225C129.916 11.7663 130.04 12.4523 130.04 13.283C130.04 14.1137 129.918 14.816 129.676 15.39C129.438 15.9593 129.092 16.3933 128.64 16.692C128.187 16.9907 127.641 17.14 127.002 17.14C126.68 17.14 126.393 17.0933 126.141 17C125.893 16.9113 125.676 16.7947 125.49 16.65C125.308 16.5007 125.154 16.342 125.028 16.174C124.906 16.006 124.806 15.845 124.727 15.691V19.254H123.425ZM126.757 16.132C127.354 16.132 127.842 15.9057 128.22 15.453C128.598 14.9957 128.787 14.2863 128.787 13.325C128.787 12.499 128.614 11.8433 128.269 11.358C127.923 10.8727 127.419 10.63 126.757 10.63C126.085 10.63 125.576 10.8797 125.231 11.379C124.885 11.8737 124.713 12.5223 124.713 13.325C124.713 13.843 124.79 14.3143 124.944 14.739C125.098 15.1637 125.326 15.502 125.63 15.754C125.933 16.006 126.309 16.132 126.757 16.132ZM134.614 17.14C133.947 17.14 133.363 16.9977 132.864 16.713C132.365 16.4237 131.977 16.0013 131.702 15.446C131.427 14.8907 131.289 14.2117 131.289 13.409C131.289 12.653 131.417 11.9903 131.674 11.421C131.931 10.8517 132.306 10.4107 132.801 10.098C133.3 9.78067 133.905 9.622 134.614 9.622C135.281 9.622 135.86 9.769 136.35 10.063C136.845 10.3523 137.227 10.7793 137.498 11.344C137.769 11.9087 137.904 12.597 137.904 13.409C137.904 14.1463 137.778 14.795 137.526 15.355C137.279 15.915 136.91 16.3537 136.42 16.671C135.935 16.9837 135.333 17.14 134.614 17.14ZM134.614 16.118C135.048 16.118 135.414 16.0083 135.713 15.789C136.012 15.5697 136.238 15.2547 136.392 14.844C136.546 14.4333 136.623 13.9457 136.623 13.381C136.623 12.863 136.555 12.3987 136.42 11.988C136.285 11.5727 136.068 11.2437 135.769 11.001C135.475 10.7583 135.09 10.637 134.614 10.637C134.175 10.637 133.804 10.7467 133.501 10.966C133.198 11.1807 132.967 11.4933 132.808 11.904C132.654 12.3147 132.577 12.807 132.577 13.381C132.577 13.8897 132.647 14.3517 132.787 14.767C132.927 15.1823 133.146 15.5113 133.445 15.754C133.744 15.9967 134.133 16.118 134.614 16.118ZM139.598 17V9.762H140.83V11.155C140.952 10.8097 141.122 10.525 141.341 10.301C141.561 10.0723 141.81 9.902 142.09 9.79C142.375 9.678 142.669 9.622 142.972 9.622C143.08 9.622 143.185 9.629 143.287 9.643C143.39 9.657 143.469 9.68033 143.525 9.713V10.966C143.455 10.9333 143.364 10.9123 143.252 10.903C143.145 10.889 143.054 10.882 142.979 10.882C142.69 10.8633 142.419 10.882 142.167 10.938C141.915 10.9893 141.694 11.0803 141.502 11.211C141.311 11.3417 141.159 11.5143 141.047 11.729C140.94 11.939 140.886 12.1957 140.886 12.499V17H139.598ZM148.867 10.707H147.236V15.208C147.236 15.4647 147.262 15.6537 147.313 15.775C147.369 15.8917 147.46 15.9663 147.586 15.999C147.717 16.0317 147.894 16.048 148.118 16.048H148.909V16.916C148.821 16.9487 148.685 16.9767 148.503 17C148.326 17.0233 148.104 17.035 147.838 17.035C147.339 17.035 146.952 16.9673 146.676 16.832C146.401 16.6967 146.207 16.496 146.095 16.23C145.988 15.964 145.934 15.6373 145.934 15.25V10.707H144.758V9.762H145.969L146.284 7.655H147.236V9.755H148.867V10.707Z" fill="#5F6C72"/>
</svg>
