<svg width="254" height="48" viewBox="0 0 254 48" fill="none" xmlns="http://www.w3.org/2000/svg">
<path fill-rule="evenodd" clip-rule="evenodd" d="M48 24C48 37.2548 37.2548 48 24 48C10.7452 48 0 37.2548 0 24C0 10.7452 10.7452 0 24 0C37.2548 0 48 10.7452 48 24ZM36 24C36 30.6274 30.6274 36 24 36C17.3726 36 12 30.6274 12 24C12 17.3726 17.3726 12 24 12C30.6274 12 36 17.3726 36 24ZM24 32C28.4183 32 32 28.4183 32 24C32 19.5817 28.4183 16 24 16C19.5817 16 16 19.5817 16 24C16 28.4183 19.5817 32 24 32Z" fill="white"/>
<path d="M58.592 36V12.864H65.376L70.672 29.36L76.016 12.864H82.784V36H78.064V18.304L72.496 36H68.832L63.296 18.384V36H58.592ZM85.615 36L93.903 12.864H98.831L107.103 36H102.447L100.559 30.64H92.239L90.303 36H85.615ZM93.279 26.56H99.439L96.383 17.376L93.279 26.56ZM109.937 12.864H114.593V36H109.937V12.864ZM134.325 12.864H138.997V36H134.789L123.797 20.08V36H119.141V12.864H123.765L134.325 28.176V12.864ZM158.361 36.32C157.22 36.32 156.1 36.176 155.001 35.888C153.903 35.6 152.9 35.168 151.993 34.592C151.087 34.016 150.335 33.296 149.737 32.432C149.151 31.568 148.799 30.5547 148.681 29.392H153.465C153.625 30.096 153.929 30.688 154.377 31.168C154.825 31.648 155.391 32.016 156.073 32.272C156.756 32.528 157.513 32.656 158.345 32.656C159.199 32.656 159.977 32.5493 160.681 32.336C161.385 32.1227 161.951 31.8027 162.377 31.376C162.804 30.9387 163.017 30.3947 163.017 29.744C163.017 29.1573 162.841 28.6773 162.489 28.304C162.148 27.9307 161.684 27.6267 161.097 27.392C160.511 27.1573 159.844 26.9653 159.097 26.816L155.097 26C153.348 25.6693 151.961 24.976 150.937 23.92C149.913 22.8533 149.385 21.4347 149.353 19.664C149.343 18.2133 149.727 16.96 150.505 15.904C151.295 14.8373 152.361 14.016 153.705 13.44C155.06 12.864 156.575 12.576 158.249 12.576C160.244 12.576 161.919 12.8907 163.273 13.52C164.639 14.1387 165.673 14.9813 166.377 16.048C167.092 17.104 167.46 18.2827 167.481 19.584H162.793C162.708 18.7733 162.463 18.128 162.057 17.648C161.652 17.168 161.129 16.8213 160.489 16.608C159.86 16.3947 159.14 16.288 158.329 16.288C157.711 16.288 157.145 16.3573 156.633 16.496C156.132 16.6347 155.705 16.832 155.353 17.088C155.001 17.3333 154.729 17.6267 154.537 17.968C154.345 18.3093 154.249 18.6933 154.249 19.12C154.249 19.792 154.473 20.336 154.921 20.752C155.369 21.168 156.207 21.5093 157.433 21.776L161.401 22.592C162.82 22.8693 163.945 23.28 164.777 23.824C165.62 24.368 166.249 24.9813 166.665 25.664C167.092 26.3467 167.369 27.0453 167.497 27.76C167.636 28.464 167.705 29.1147 167.705 29.712C167.705 30.96 167.311 32.0853 166.521 33.088C165.743 34.08 164.655 34.8693 163.257 35.456C161.86 36.032 160.228 36.32 158.361 36.32ZM169.143 17.024V12.864H187.655V17.024H180.823V36H176.135V17.024H169.143ZM199.728 36.32C197.541 36.32 195.648 35.8453 194.048 34.896C192.459 33.936 191.227 32.576 190.352 30.816C189.488 29.0453 189.056 26.9333 189.056 24.48C189.056 22.016 189.493 19.8933 190.368 18.112C191.253 16.3307 192.496 14.96 194.096 14C195.696 13.0293 197.573 12.544 199.728 12.544C201.872 12.544 203.739 13.024 205.328 13.984C206.917 14.944 208.144 16.3147 209.008 18.096C209.883 19.8773 210.32 22.0053 210.32 24.48C210.32 26.9227 209.888 29.0293 209.024 30.8C208.171 32.5707 206.949 33.936 205.36 34.896C203.771 35.8453 201.893 36.32 199.728 36.32ZM199.728 32.48C200.859 32.48 201.835 32.2133 202.656 31.68C203.488 31.136 204.128 30.2827 204.576 29.12C205.024 27.9467 205.248 26.4213 205.248 24.544C205.248 22.6133 205.019 21.0507 204.56 19.856C204.112 18.6613 203.472 17.7867 202.64 17.232C201.819 16.6667 200.848 16.384 199.728 16.384C198.608 16.384 197.632 16.6667 196.8 17.232C195.968 17.7867 195.323 18.6667 194.864 19.872C194.405 21.0667 194.176 22.624 194.176 24.544C194.176 26.432 194.405 27.9573 194.864 29.12C195.323 30.2827 195.968 31.136 196.8 31.68C197.632 32.2133 198.608 32.48 199.728 32.48ZM231.768 36H226.92L223.16 27.088H218.472V36H213.816V12.864H223.576C225.421 12.864 226.93 13.1573 228.104 13.744C229.277 14.3307 230.141 15.1467 230.696 16.192C231.25 17.2267 231.528 18.4213 231.528 19.776C231.528 20.992 231.336 22.0213 230.952 22.864C230.578 23.696 230.082 24.3893 229.464 24.944C228.856 25.4987 228.189 25.952 227.464 26.304L231.768 36ZM222.744 23.488C223.992 23.488 224.978 23.152 225.704 22.48C226.44 21.808 226.808 20.944 226.808 19.888C226.808 18.8213 226.456 17.9787 225.752 17.36C225.048 16.7413 224.157 16.432 223.08 16.432H218.472V23.488H222.744ZM235.457 36V12.864H251.345L251.329 16.8H240.145V22.416H249.857V26.272H240.113V32.016L251.505 32.032V36H235.457Z" fill="white"/>
</svg>
