<svg width="99" height="24" viewBox="0 0 99 24" fill="none" xmlns="http://www.w3.org/2000/svg">
<path d="M12 21C16.9706 21 21 16.9706 21 12C21 7.02944 16.9706 3 12 3C7.02944 3 3 7.02944 3 12C3 16.9706 7.02944 21 12 21Z" stroke="#5F6C72" stroke-width="1.5" stroke-linecap="round" stroke-linejoin="round"/>
<path d="M11.25 11.25H12V16.5H12.75" stroke="#5F6C72" stroke-width="1.5" stroke-linecap="round" stroke-linejoin="round"/>
<path d="M12.1875 7.875C12.1875 8.08211 12.0196 8.25 11.8125 8.25C11.6054 8.25 11.4375 8.08211 11.4375 7.875C11.4375 7.66789 11.6054 7.5 11.8125 7.5C12.0196 7.5 12.1875 7.66789 12.1875 7.875Z" fill="#191C1F" stroke="#5F6C72" stroke-width="1.5"/>
<path d="M37.924 6.878H39.219V17H38.064L32.632 9.02V17H31.337V6.878H32.576L37.924 14.746V6.878ZM42.454 13.682C42.454 14.1393 42.5287 14.5547 42.678 14.928C42.832 15.2967 43.063 15.5907 43.371 15.81C43.6837 16.0293 44.0733 16.139 44.54 16.139C45.002 16.139 45.3987 16.0317 45.73 15.817C46.066 15.6023 46.2807 15.292 46.374 14.886H47.599C47.5103 15.376 47.3143 15.789 47.011 16.125C46.7077 16.461 46.3413 16.7153 45.912 16.888C45.4827 17.056 45.0347 17.14 44.568 17.14C43.8913 17.14 43.2963 16.993 42.783 16.699C42.2697 16.405 41.8683 15.9827 41.579 15.432C41.2897 14.8813 41.145 14.221 41.145 13.451C41.145 12.6903 41.2757 12.023 41.537 11.449C41.7983 10.875 42.1763 10.427 42.671 10.105C43.1703 9.783 43.77 9.622 44.47 9.622C45.1513 9.622 45.7277 9.769 46.199 10.063C46.6703 10.357 47.0273 10.7723 47.27 11.309C47.5173 11.841 47.641 12.4733 47.641 13.206V13.682H42.454ZM42.461 12.807H46.395C46.395 12.3917 46.325 12.0183 46.185 11.687C46.045 11.351 45.8303 11.0873 45.541 10.896C45.2563 10.7 44.897 10.602 44.463 10.602C44.0103 10.602 43.6347 10.7117 43.336 10.931C43.042 11.1457 42.8203 11.4233 42.671 11.764C42.5263 12.1 42.4563 12.4477 42.461 12.807ZM50.3427 13.682C50.3427 14.1393 50.4173 14.5547 50.5667 14.928C50.7207 15.2967 50.9517 15.5907 51.2597 15.81C51.5723 16.0293 51.962 16.139 52.4287 16.139C52.8907 16.139 53.2873 16.0317 53.6187 15.817C53.9547 15.6023 54.1693 15.292 54.2627 14.886H55.4877C55.399 15.376 55.203 15.789 54.8997 16.125C54.5963 16.461 54.23 16.7153 53.8007 16.888C53.3713 17.056 52.9233 17.14 52.4567 17.14C51.78 17.14 51.185 16.993 50.6717 16.699C50.1583 16.405 49.757 15.9827 49.4677 15.432C49.1783 14.8813 49.0337 14.221 49.0337 13.451C49.0337 12.6903 49.1643 12.023 49.4257 11.449C49.687 10.875 50.065 10.427 50.5597 10.105C51.059 9.783 51.6587 9.622 52.3587 9.622C53.04 9.622 53.6163 9.769 54.0877 10.063C54.559 10.357 54.916 10.7723 55.1587 11.309C55.406 11.841 55.5297 12.4733 55.5297 13.206V13.682H50.3427ZM50.3497 12.807H54.2837C54.2837 12.3917 54.2137 12.0183 54.0737 11.687C53.9337 11.351 53.719 11.0873 53.4297 10.896C53.145 10.7 52.7857 10.602 52.3517 10.602C51.899 10.602 51.5233 10.7117 51.2247 10.931C50.9307 11.1457 50.709 11.4233 50.5597 11.764C50.415 12.1 50.345 12.4477 50.3497 12.807ZM59.9183 17.14C58.9803 17.14 58.236 16.818 57.6853 16.174C57.1347 15.53 56.8593 14.5897 56.8593 13.353C56.8593 12.6017 56.969 11.946 57.1883 11.386C57.4123 10.826 57.7437 10.392 58.1823 10.084C58.621 9.776 59.167 9.622 59.8203 9.622C60.1657 9.622 60.4713 9.66633 60.7373 9.755C61.008 9.84367 61.2413 9.95567 61.4373 10.091C61.6333 10.2263 61.792 10.3663 61.9133 10.511C62.0393 10.6557 62.1327 10.7887 62.1933 10.91V6.598H63.4953V17H62.5083L62.3683 15.516C62.3217 15.656 62.247 15.8193 62.1443 16.006C62.0417 16.188 61.897 16.3677 61.7103 16.545C61.5237 16.7177 61.2833 16.86 60.9893 16.972C60.7 17.084 60.343 17.14 59.9183 17.14ZM60.1493 16.146C60.882 16.146 61.4047 15.9243 61.7173 15.481C62.0347 15.033 62.1933 14.3027 62.1933 13.29C62.1887 12.7253 62.1163 12.2447 61.9763 11.848C61.841 11.4513 61.6263 11.1503 61.3323 10.945C61.043 10.735 60.658 10.63 60.1773 10.63C59.58 10.63 59.0947 10.8423 58.7213 11.267C58.348 11.6917 58.1613 12.366 58.1613 13.29C58.1613 14.1953 58.3293 14.8977 58.6653 15.397C59.006 15.8963 59.5007 16.146 60.1493 16.146ZM75.8811 12.331H70.4211V17H69.1261V6.878H70.4211V11.19H75.8811V6.878H77.1761V17H75.8811V12.331ZM80.4071 13.682C80.4071 14.1393 80.4818 14.5547 80.6311 14.928C80.7851 15.2967 81.0161 15.5907 81.3241 15.81C81.6368 16.0293 82.0264 16.139 82.4931 16.139C82.9551 16.139 83.3518 16.0317 83.6831 15.817C84.0191 15.6023 84.2338 15.292 84.3271 14.886H85.5521C85.4634 15.376 85.2674 15.789 84.9641 16.125C84.6608 16.461 84.2944 16.7153 83.8651 16.888C83.4358 17.056 82.9878 17.14 82.5211 17.14C81.8444 17.14 81.2494 16.993 80.7361 16.699C80.2228 16.405 79.8214 15.9827 79.5321 15.432C79.2428 14.8813 79.0981 14.221 79.0981 13.451C79.0981 12.6903 79.2288 12.023 79.4901 11.449C79.7514 10.875 80.1294 10.427 80.6241 10.105C81.1234 9.783 81.7231 9.622 82.4231 9.622C83.1044 9.622 83.6808 9.769 84.1521 10.063C84.6234 10.357 84.9804 10.7723 85.2231 11.309C85.4704 11.841 85.5941 12.4733 85.5941 13.206V13.682H80.4071ZM80.4141 12.807H84.3481C84.3481 12.3917 84.2781 12.0183 84.1381 11.687C83.9981 11.351 83.7834 11.0873 83.4941 10.896C83.2094 10.7 82.8501 10.602 82.4161 10.602C81.9634 10.602 81.5878 10.7117 81.2891 10.931C80.9951 11.1457 80.7734 11.4233 80.6241 11.764C80.4794 12.1 80.4094 12.4477 80.4141 12.807ZM89.1988 17.091C88.8068 17.091 88.4894 17.0373 88.2468 16.93C88.0088 16.8227 87.8244 16.678 87.6938 16.496C87.5678 16.314 87.4814 16.1063 87.4348 15.873C87.3928 15.635 87.3718 15.39 87.3718 15.138V6.598H88.6458V15.012C88.6458 15.376 88.7158 15.649 88.8558 15.831C89.0004 16.013 89.2011 16.1133 89.4578 16.132L89.8498 16.139V16.979C89.7424 17.0117 89.6304 17.0373 89.5138 17.056C89.3971 17.0793 89.2921 17.091 89.1988 17.091ZM91.5144 19.254V9.762H92.8024L92.8164 11.022C92.9004 10.8727 93.0077 10.7163 93.1384 10.553C93.2737 10.3897 93.437 10.238 93.6284 10.098C93.8244 9.958 94.0507 9.84367 94.3074 9.755C94.5687 9.66633 94.865 9.622 95.1964 9.622C95.775 9.622 96.2837 9.755 96.7224 10.021C97.1657 10.2823 97.511 10.6837 97.7584 11.225C98.0057 11.7663 98.1294 12.4523 98.1294 13.283C98.1294 14.1137 98.008 14.816 97.7654 15.39C97.5274 15.9593 97.182 16.3933 96.7294 16.692C96.2767 16.9907 95.7307 17.14 95.0914 17.14C94.7694 17.14 94.4824 17.0933 94.2304 17C93.983 16.9113 93.766 16.7947 93.5794 16.65C93.3974 16.5007 93.2434 16.342 93.1174 16.174C92.996 16.006 92.8957 15.845 92.8164 15.691V19.254H91.5144ZM94.8464 16.132C95.4437 16.132 95.9314 15.9057 96.3094 15.453C96.6874 14.9957 96.8764 14.2863 96.8764 13.325C96.8764 12.499 96.7037 11.8433 96.3584 11.358C96.013 10.8727 95.509 10.63 94.8464 10.63C94.1744 10.63 93.6657 10.8797 93.3204 11.379C92.975 11.8737 92.8024 12.5223 92.8024 13.325C92.8024 13.843 92.8794 14.3143 93.0334 14.739C93.1874 15.1637 93.416 15.502 93.7194 15.754C94.0227 16.006 94.3984 16.132 94.8464 16.132Z" fill="#5F6C72"/>
</svg>
