<svg width="107" height="24" viewBox="0 0 107 24" fill="none" xmlns="http://www.w3.org/2000/svg">
<path d="M5.25 21.75H18.75" stroke="#5F6C72" stroke-width="1.5" stroke-linecap="round" stroke-linejoin="round"/>
<path d="M19.5 9.75C19.5 16.5 12 21.75 12 21.75C12 21.75 4.5 16.5 4.5 9.75C4.5 7.76088 5.29018 5.85322 6.6967 4.4467C8.10322 3.04018 10.0109 2.25 12 2.25C13.9891 2.25 15.8968 3.04018 17.3033 4.4467C18.7098 5.85322 19.5 7.76088 19.5 9.75V9.75Z" stroke="#5F6C72" stroke-width="1.5" stroke-linecap="round" stroke-linejoin="round"/>
<path d="M12 12.75C13.6569 12.75 15 11.4069 15 9.75C15 8.09315 13.6569 6.75 12 6.75C10.3431 6.75 9 8.09315 9 9.75C9 11.4069 10.3431 12.75 12 12.75Z" stroke="#5F6C72" stroke-width="1.5" stroke-linecap="round" stroke-linejoin="round"/>
<path d="M30.322 8.068V6.878H37.98V8.068H34.893V17H33.591V8.068H30.322ZM38.9323 17V9.762H40.1643V11.155C40.2857 10.8097 40.456 10.525 40.6753 10.301C40.8947 10.0723 41.1443 9.902 41.4243 9.79C41.709 9.678 42.003 9.622 42.3063 9.622C42.4137 9.622 42.5187 9.629 42.6213 9.643C42.724 9.657 42.8033 9.68033 42.8593 9.713V10.966C42.7893 10.9333 42.6983 10.9123 42.5863 10.903C42.479 10.889 42.388 10.882 42.3133 10.882C42.024 10.8633 41.7533 10.882 41.5013 10.938C41.2493 10.9893 41.0277 11.0803 40.8363 11.211C40.645 11.3417 40.4933 11.5143 40.3813 11.729C40.274 11.939 40.2203 12.1957 40.2203 12.499V17H38.9323ZM46.1843 17.14C45.7177 17.14 45.3047 17.0583 44.9453 16.895C44.586 16.727 44.3037 16.4867 44.0983 16.174C43.8977 15.8613 43.7973 15.4833 43.7973 15.04C43.7973 14.2373 44.0773 13.64 44.6373 13.248C45.1973 12.856 46.0957 12.646 47.3323 12.618L48.6273 12.583V12.016C48.6273 11.5727 48.4943 11.2227 48.2283 10.966C47.9623 10.7047 47.5493 10.574 46.9893 10.574C46.574 10.5787 46.2077 10.6767 45.8903 10.868C45.5777 11.0593 45.3747 11.372 45.2813 11.806H44.1403C44.1683 11.3347 44.3013 10.938 44.5393 10.616C44.7773 10.2893 45.1087 10.042 45.5333 9.874C45.9627 9.706 46.469 9.622 47.0523 9.622C47.6823 9.622 48.205 9.71067 48.6203 9.888C49.0403 10.0653 49.353 10.3267 49.5583 10.672C49.7683 11.0173 49.8733 11.442 49.8733 11.946V17H48.7673L48.6763 15.642C48.3963 16.2067 48.0393 16.5987 47.6053 16.818C47.176 17.0327 46.7023 17.14 46.1843 17.14ZM46.5763 16.209C46.819 16.209 47.0593 16.1647 47.2973 16.076C47.54 15.9873 47.7617 15.8683 47.9623 15.719C48.163 15.565 48.3217 15.3947 48.4383 15.208C48.5597 15.0167 48.6227 14.8207 48.6273 14.62V13.381L47.5493 13.402C46.9987 13.4113 46.5367 13.4673 46.1633 13.57C45.7947 13.6727 45.517 13.8337 45.3303 14.053C45.1483 14.2723 45.0573 14.5593 45.0573 14.914C45.0573 15.32 45.1973 15.6373 45.4773 15.866C45.762 16.0947 46.1283 16.209 46.5763 16.209ZM54.9687 9.622C55.4867 9.622 55.9533 9.72233 56.3687 9.923C56.784 10.119 57.1223 10.399 57.3837 10.763C57.6497 11.127 57.8153 11.5563 57.8807 12.051H56.7327C56.6907 11.799 56.5927 11.568 56.4387 11.358C56.2893 11.148 56.091 10.98 55.8437 10.854C55.5963 10.728 55.307 10.665 54.9757 10.665C54.355 10.665 53.851 10.889 53.4637 11.337C53.0763 11.785 52.8827 12.471 52.8827 13.395C52.8827 14.2303 53.06 14.9 53.4147 15.404C53.774 15.9033 54.3013 16.153 54.9967 16.153C55.328 16.153 55.615 16.09 55.8577 15.964C56.105 15.8333 56.3033 15.663 56.4527 15.453C56.602 15.2383 56.6977 15.0097 56.7397 14.767H57.8667C57.806 15.2523 57.6427 15.6723 57.3767 16.027C57.1107 16.3817 56.77 16.657 56.3547 16.853C55.944 17.0443 55.482 17.14 54.9687 17.14C54.32 17.14 53.7437 16.9977 53.2397 16.713C52.7403 16.4283 52.3483 16.0083 52.0637 15.453C51.779 14.8977 51.6367 14.2163 51.6367 13.409C51.6367 12.653 51.765 11.9927 52.0217 11.428C52.283 10.8587 52.661 10.4153 53.1557 10.098C53.655 9.78067 54.2593 9.622 54.9687 9.622ZM65.9875 17H64.6155L62.3475 13.367L60.9195 14.844V17H59.6315V6.598H60.9195V13.381L64.3215 9.762H65.8055L63.1945 12.52L65.9875 17ZM74.8415 17.14C73.9408 17.14 73.1615 16.937 72.5035 16.531C71.8455 16.125 71.3368 15.537 70.9775 14.767C70.6228 13.9923 70.4455 13.0567 70.4455 11.96C70.4455 10.854 70.6251 9.91367 70.9845 9.139C71.3438 8.35967 71.8525 7.76467 72.5105 7.354C73.1731 6.94333 73.9501 6.738 74.8415 6.738C75.7375 6.738 76.5121 6.94333 77.1655 7.354C77.8188 7.76 78.3228 8.35267 78.6775 9.132C79.0321 9.90667 79.2095 10.8493 79.2095 11.96C79.2095 13.0567 79.0321 13.9923 78.6775 14.767C78.3275 15.537 77.8258 16.125 77.1725 16.531C76.5191 16.937 75.7421 17.14 74.8415 17.14ZM74.8415 16.013C75.4668 16.013 75.9988 15.8707 76.4375 15.586C76.8761 15.3013 77.2098 14.8603 77.4385 14.263C77.6718 13.6657 77.7885 12.9027 77.7885 11.974C77.7885 11.0313 77.6718 10.2567 77.4385 9.65C77.2051 9.04333 76.8691 8.59533 76.4305 8.306C75.9918 8.012 75.4621 7.865 74.8415 7.865C74.2255 7.865 73.6958 8.012 73.2525 8.306C72.8091 8.6 72.4685 9.05033 72.2305 9.657C71.9925 10.2637 71.8735 11.036 71.8735 11.974C71.8735 12.9027 71.9925 13.6657 72.2305 14.263C72.4685 14.8603 72.8091 15.3013 73.2525 15.586C73.6958 15.8707 74.2255 16.013 74.8415 16.013ZM80.946 17V9.762H82.178V11.155C82.2993 10.8097 82.4697 10.525 82.689 10.301C82.9083 10.0723 83.158 9.902 83.438 9.79C83.7227 9.678 84.0167 9.622 84.32 9.622C84.4273 9.622 84.5323 9.629 84.635 9.643C84.7377 9.657 84.817 9.68033 84.873 9.713V10.966C84.803 10.9333 84.712 10.9123 84.6 10.903C84.4927 10.889 84.4017 10.882 84.327 10.882C84.0377 10.8633 83.767 10.882 83.515 10.938C83.263 10.9893 83.0413 11.0803 82.85 11.211C82.6587 11.3417 82.507 11.5143 82.395 11.729C82.2877 11.939 82.234 12.1957 82.234 12.499V17H80.946ZM88.8343 17.14C87.8963 17.14 87.152 16.818 86.6013 16.174C86.0507 15.53 85.7753 14.5897 85.7753 13.353C85.7753 12.6017 85.885 11.946 86.1043 11.386C86.3283 10.826 86.6597 10.392 87.0983 10.084C87.537 9.776 88.083 9.622 88.7363 9.622C89.0817 9.622 89.3873 9.66633 89.6533 9.755C89.924 9.84367 90.1573 9.95567 90.3533 10.091C90.5493 10.2263 90.708 10.3663 90.8293 10.511C90.9553 10.6557 91.0487 10.7887 91.1093 10.91V6.598H92.4113V17H91.4243L91.2843 15.516C91.2377 15.656 91.163 15.8193 91.0603 16.006C90.9577 16.188 90.813 16.3677 90.6263 16.545C90.4397 16.7177 90.1993 16.86 89.9053 16.972C89.616 17.084 89.259 17.14 88.8343 17.14ZM89.0653 16.146C89.798 16.146 90.3207 15.9243 90.6333 15.481C90.9507 15.033 91.1093 14.3027 91.1093 13.29C91.1047 12.7253 91.0323 12.2447 90.8923 11.848C90.757 11.4513 90.5423 11.1503 90.2483 10.945C89.959 10.735 89.574 10.63 89.0933 10.63C88.496 10.63 88.0107 10.8423 87.6373 11.267C87.264 11.6917 87.0773 12.366 87.0773 13.29C87.0773 14.1953 87.2453 14.8977 87.5813 15.397C87.922 15.8963 88.4167 16.146 89.0653 16.146ZM95.4735 13.682C95.4735 14.1393 95.5482 14.5547 95.6975 14.928C95.8515 15.2967 96.0825 15.5907 96.3905 15.81C96.7032 16.0293 97.0928 16.139 97.5595 16.139C98.0215 16.139 98.4182 16.0317 98.7495 15.817C99.0855 15.6023 99.3002 15.292 99.3935 14.886H100.619C100.53 15.376 100.334 15.789 100.031 16.125C99.7272 16.461 99.3608 16.7153 98.9315 16.888C98.5022 17.056 98.0542 17.14 97.5875 17.14C96.9108 17.14 96.3158 16.993 95.8025 16.699C95.2892 16.405 94.8878 15.9827 94.5985 15.432C94.3092 14.8813 94.1645 14.221 94.1645 13.451C94.1645 12.6903 94.2952 12.023 94.5565 11.449C94.8178 10.875 95.1958 10.427 95.6905 10.105C96.1898 9.783 96.7895 9.622 97.4895 9.622C98.1708 9.622 98.7472 9.769 99.2185 10.063C99.6898 10.357 100.047 10.7723 100.29 11.309C100.537 11.841 100.661 12.4733 100.661 13.206V13.682H95.4735ZM95.4805 12.807H99.4145C99.4145 12.3917 99.3445 12.0183 99.2045 11.687C99.0645 11.351 98.8498 11.0873 98.5605 10.896C98.2758 10.7 97.9165 10.602 97.4825 10.602C97.0298 10.602 96.6542 10.7117 96.3555 10.931C96.0615 11.1457 95.8398 11.4233 95.6905 11.764C95.5458 12.1 95.4758 12.4477 95.4805 12.807ZM102.438 17V9.762H103.67V11.155C103.792 10.8097 103.962 10.525 104.181 10.301C104.401 10.0723 104.65 9.902 104.93 9.79C105.215 9.678 105.509 9.622 105.812 9.622C105.92 9.622 106.025 9.629 106.127 9.643C106.23 9.657 106.309 9.68033 106.365 9.713V10.966C106.295 10.9333 106.204 10.9123 106.092 10.903C105.985 10.889 105.894 10.882 105.819 10.882C105.53 10.8633 105.259 10.882 105.007 10.938C104.755 10.9893 104.534 11.0803 104.342 11.211C104.151 11.3417 103.999 11.5143 103.887 11.729C103.78 11.939 103.726 12.1957 103.726 12.499V17H102.438Z" fill="#5F6C72"/>
</svg>
