<svg width="38" height="38" viewBox="0 0 38 38" fill="none" xmlns="http://www.w3.org/2000/svg">
<path d="M10 35C11.1046 35 12 34.1046 12 33C12 31.8954 11.1046 31 10 31C8.89543 31 8 31.8954 8 33C8 34.1046 8.89543 35 10 35Z" fill="white"/>
<path d="M23 35C24.1046 35 25 34.1046 25 33C25 31.8954 24.1046 31 23 31C21.8954 31 21 31.8954 21 33C21 34.1046 21.8954 35 23 35Z" fill="white"/>
<path d="M5.2875 15H27.7125L24.4125 26.55C24.2948 26.9692 24.0426 27.3381 23.6948 27.6001C23.3471 27.862 22.9229 28.0025 22.4875 28H10.5125C10.0771 28.0025 9.65293 27.862 9.30515 27.6001C8.95738 27.3381 8.70524 26.9692 8.5875 26.55L4.0625 10.725C4.0027 10.5159 3.8764 10.3321 3.70271 10.2012C3.52903 10.0704 3.31744 9.99977 3.1 10H1" stroke="white" stroke-width="2" stroke-linecap="round" stroke-linejoin="round"/>
<rect x="15.25" y="1.25" width="21.5" height="21.5" rx="10.75" fill="white"/>
<rect x="15.25" y="1.25" width="21.5" height="21.5" rx="10.75" stroke="#1B6392" stroke-width="1.5"/>
<path d="M23.0049 16V15.22V14.818C23.0049 14.374 23.0869 13.992 23.2509 13.672C23.4149 13.348 23.6329 13.066 23.9049 12.826C24.1769 12.586 24.4749 12.374 24.7989 12.19C25.1269 12.002 25.4509 11.826 25.7709 11.662C26.0949 11.494 26.3929 11.322 26.6649 11.146C26.9369 10.966 27.1549 10.766 27.3189 10.546C27.4869 10.326 27.5709 10.064 27.5709 9.76C27.5709 9.372 27.4329 9.056 27.1569 8.812C26.8849 8.564 26.5149 8.44 26.0469 8.44C25.5509 8.44 25.1409 8.582 24.8169 8.866C24.4969 9.15 24.3069 9.55 24.2469 10.066H22.8309C22.8389 9.538 22.9649 9.058 23.2089 8.626C23.4529 8.194 23.8149 7.85 24.2949 7.594C24.7749 7.334 25.3729 7.204 26.0889 7.204C26.7089 7.204 27.2429 7.312 27.6909 7.528C28.1429 7.74 28.4909 8.038 28.7349 8.422C28.9829 8.802 29.1069 9.246 29.1069 9.754C29.1069 10.198 29.0249 10.578 28.8609 10.894C28.7009 11.21 28.4869 11.484 28.2189 11.716C27.9549 11.944 27.6629 12.146 27.3429 12.322C27.0269 12.498 26.7089 12.664 26.3889 12.82C26.0729 12.972 25.7809 13.132 25.5129 13.3C25.2489 13.464 25.0349 13.652 24.8709 13.864C24.7109 14.076 24.6309 14.33 24.6309 14.626V14.752H29.1249V16H23.0049Z" fill="#1B6392"/>
</svg>
