<svg width="16" height="16" viewBox="0 0 16 16" fill="none" xmlns="http://www.w3.org/2000/svg">
<path d="M5.03184 14.5024C11.0699 14.5024 14.3718 9.49712 14.3718 5.15671C14.3718 5.01456 14.3689 4.87307 14.3625 4.73216C15.005 4.26698 15.5595 3.69101 16 3.03127C15.4118 3.29292 14.7789 3.46903 14.1149 3.54843C14.7926 3.1418 15.3129 2.49849 15.5584 1.73168C14.914 2.11417 14.2091 2.38381 13.4739 2.52897C12.8749 1.89051 12.0221 1.4912 11.0778 1.4912C9.26494 1.4912 7.79489 2.96218 7.79489 4.77539C7.79489 5.03317 7.82374 5.28383 7.88006 5.52434C5.15177 5.38698 2.73252 4.07994 1.11343 2.09251C0.821818 2.59378 0.668434 3.16348 0.668943 3.74343C0.668943 4.88302 1.24846 5.88901 2.12976 6.47758C1.60846 6.46165 1.0986 6.32075 0.643057 6.06675C0.642569 6.08054 0.642569 6.09397 0.642569 6.10871C0.642569 7.69943 1.77408 9.02758 3.27613 9.32853C2.99402 9.4054 2.70292 9.44427 2.41054 9.4441C2.19938 9.4441 1.99359 9.42331 1.79359 9.3849C2.21151 10.69 3.42335 11.6397 4.86013 11.6662C3.73659 12.5474 2.32127 13.0722 0.783024 13.0722C0.521349 13.0725 0.259888 13.0573 0 13.0267C1.45281 13.9585 3.17789 14.5022 5.032 14.5022" fill="white"/>
</svg>
